# xmcd
#
# Track frame offsets: 
#        150
#        21548
#        40348
#        63943
#        88988
#        103545
#        114613
#        140020
#        158600
#        187433
#        212403
#        238808
#
# Disc length: 3421 seconds
#
# Revision: 2
# Processed by: cddbd v1.5.2PL0 Copyright (c) Steve Scherf et al.
# Submitted via: ExactAudioCopy v1.0b3
#
DISCID=b10d5b0c
DTITLE=Clapton, Eric - Journeyman
DYEAR=1989
DGENRE=Blues
TTITLE0=Pretending
TTITLE1=Anything For Your Love
TTITLE2=Bad Love
TTITLE3=Running On Faith
TTITLE4=Hard Times
TTITLE5=Hound Dog
TTITLE6=No Alibis
TTITLE7=Run So Far
TTITLE8=Old Love
TTITLE9=Breaking Point
TTITLE10=Lead Me On
TTITLE11=Before You Accuse Me
EXTD=
EXTT0=
EXTT1=
EXTT2=
EXTT3=
EXTT4=
EXTT5=
EXTT6=
EXTT7=
EXTT8=
EXTT9=
EXTT10=
EXTT11=
PLAYORDER=
